<?xml version="1.0" encoding="UTF-8"?>
<!DOCTYPE svg PUBLIC "-//W3C//DTD SVG 1.1//EN" "http://www.w3.org/Graphics/SVG/1.1/DTD/svg11.dtd">
<!-- Creator: CorelDRAW 2018 (64-Bit) -->
<svg xmlns="http://www.w3.org/2000/svg" xml:space="preserve" width="210mm" height="297mm" version="1.1" style="shape-rendering:geometricPrecision; text-rendering:geometricPrecision; image-rendering:optimizeQuality; fill-rule:evenodd; clip-rule:evenodd"
viewBox="0 0 21000 29700"
 xmlns:xlink="http://www.w3.org/1999/xlink">
 <defs>
  <style type="text/css">
   <![CDATA[
    .fil0 {fill:#4A6BB6}
   ]]>
  </style>
 </defs>
 <g id="Слой_x0020_1">
  <metadata id="CorelCorpID_0Corel-Layer"/>
  <g id="_1905916122192">
   <path class="fil0" d="M10838.51 19653.65l-18.32 -6070.43c685.9,453.8 1062.02,1247.41 1819.34,1627.81l5075.2 -2489.08 -0.27 3638.15 -6875.95 3293.55zm9940.08 -8943.04l0 182.72c-161.31,590.39 -1773.08,1245.34 -2202.34,1349.36l0 4596.16c-727.57,475.87 -1953.83,976.82 -2808.83,1404.34 -950.14,475.11 -1879.05,891.78 -2840.64,1372.54 -469.11,234.51 -941.15,496.23 -1423.92,682.67 -607.37,234.6 -888.3,649.56 -1515.85,342.52 -660.82,-323.3 -2347.32,-956.19 -2736.16,-1515.99l217.95 -466.75c912.19,0.82 1633.08,750.01 2489.6,957.55l0 -6032.51c-685.9,453.8 -1062.02,1247.41 -1837.84,1664.92l-5056.43 -2526.71 0 3638.67c464.34,112.48 932.23,418.14 1372.51,638.29 506.24,253.14 866.54,299.25 1117.1,798 -114.3,227.54 -224.77,338.64 -391.87,497.26l-2959.52 -1454.8 0 -4596.16c-429.27,-104.02 -2041.04,-758.97 -2202.35,-1349.36l0 -182.72c164.54,-248.72 2094.51,-2197.63 2333.39,-2358.53 405.55,-273.2 2744.75,-1379.59 3124.59,-1471.64l0 -4213.14c996.17,-651.57 2110.87,-1139.41 3122.13,-1761.33 2188.97,-1346.18 1745.56,-985.07 3197.63,-249.53l0 574.53c-460.97,211.5 -466.78,211.83 -1332.37,-295.47 -430.05,120.73 -3259.37,1661.03 -3622.22,1947.91l452.5 263.74c643.51,371.1 2763.02,1625.92 3161.53,1722.47 519.73,-339.91 1221.78,-691.96 1788.93,-987.92l1729.33 -998.29c-469.38,-371.13 -678.87,-137.37 -837.17,-790.65 107.65,-920.58 1643.12,208.76 2202.35,574.54l0 4213.14c417.32,101.14 2812.93,1233.21 3180.5,1511.46 268.9,203.57 2110.17,2065.81 2277.47,2318.71zm-8043.33 3542.9l-1603.2 -1652.46 805.2 -390.37c300.2,-150.37 595.51,-297.67 893.76,-446.77 597.41,-298.68 1181.34,-540.36 1755.6,-829.76 827.62,-417.1 2753,-1476.22 3510.85,-1659.84l1509.75 1458.61 -775.69 424.46c-300.72,150.59 -592.78,296.59 -893.58,446.99l-5202.69 2649.14zm-11561.6 -3542.9l1486.72 -1457.2 6986.15 3347.64 -1625.12 1630.61 -6010.58 -3042.28c-149.97,-74.97 -295.53,-147.79 -448.1,-222.84l-389.07 -255.93zm4180.36 -2880.82l180.96 315.43c78.36,102.85 4656.77,2758.89 4997.96,2661.15 760.46,-497.37 1706.77,-954.32 2522.6,-1403.32l2369.04 -1573.26 1490.11 714.95c193.42,85.74 176.6,109.74 200.64,130.42l-6674.84 3278.32c-470.69,-123.37 -6489.87,-3042.23 -6777.23,-3286.52 356.58,-279.22 1173.41,-533.98 1690.76,-837.17zm5466.17 1827.53l0 -4021.68 3635.39 -2016.69 3.25 4027.55c-1114.97,632.4 -2540.38,1292.52 -3638.64,2010.82zm-4500.43 -6032.5l3635.03 2017.34 3.61 4015.16 -3629.46 -2027.41 -9.18 -4005.09z"/>
   <path class="fil0" d="M17714.46 752.2l0 2872.62c62.94,41.63 492.4,540.95 798.6,128.22 142.69,-426.33 142.69,-2702.7 0.27,-3129.41l-216.49 -168.73c-430.03,55.68 -238.59,72.07 -582.38,297.3z"/>
   <path class="fil0" d="M2226.97 2404.63c-50.65,430.41 -97.85,1036.62 38.29,1444.52 349.9,160.39 5,158.16 607.35,158.68 290.57,-573.56 290.57,-1245.75 0,-1819.31 -439.82,0.38 -348.29,-81.51 -645.64,216.11z"/>
   <path class="fil0" d="M2214.67 5162.65l-14.17 1334.78 383.99 193.23c670.35,-338.01 479.64,-708.97 479.64,-1438.03 -288.31,-190.73 -141.95,-196.11 -478.77,-287.25l-370.69 197.27z"/>
   <path class="fil0" d="M5910.18 18454.47c209.35,371.62 57.84,201.32 401.36,403.43 458.17,-127.3 476.57,-186.42 487,-678.49 -350.12,-230.77 -201.89,-191.09 -670.3,-191.5l-218.06 466.56z"/>
   <path class="fil0" d="M12089.61 1351.35l-28.28 454.05 470.41 218.07 414.5 -390.02 -206.1 -500.43c-444.68,2.6 -353.18,-79.32 -650.53,218.33z"/>
   <path class="fil0" d="M17714.46 5061.14c82,338.39 93.72,371.04 374.82,582.73l435.1 -139.82c138.18,-471.93 73.99,-406.11 -139.63,-730.19 -386.84,11.12 -454.83,54.39 -670.29,287.28z"/>
  </g>
 </g>
</svg>
