<?xml version="1.0" encoding="UTF-8"?>
<!DOCTYPE svg PUBLIC "-//W3C//DTD SVG 1.1//EN" "http://www.w3.org/Graphics/SVG/1.1/DTD/svg11.dtd">
<!-- Creator: CorelDRAW 2018 (64-Bit) -->
<svg xmlns="http://www.w3.org/2000/svg" xml:space="preserve" width="210mm" height="150mm" version="1.1" style="shape-rendering:geometricPrecision; text-rendering:geometricPrecision; image-rendering:optimizeQuality; fill-rule:evenodd; clip-rule:evenodd"
viewBox="0 0 21000 15000"
 xmlns:xlink="http://www.w3.org/1999/xlink">
 <defs>
  <style type="text/css">
   <![CDATA[
    .fil0 {fill:#4A6BB6}
   ]]>
  </style>
 </defs>
 <g id="Слой_x0020_1">
  <metadata id="CorelCorpID_0Corel-Layer"/>
  <path class="fil0" d="M12079.57 5412.19c742.13,177.68 526.99,40.22 1555.91,-805.34 152.31,-125.17 277.61,-221.5 444.25,-342.81 1553.96,-1131.26 3031.26,-1101.05 4355.58,223.29 1366.45,1366.46 1550.36,3205.2 196.82,4722.63 -1926.91,2160.2 -4943.64,514.14 -6455.73,-982.39l-1531.11 -1617.22c-581.67,-667.54 -1599.7,-1962.47 -2297.07,-2504.12 -289.93,-225.2 -625.36,-493.16 -914.66,-659.49 -2050.56,-1178.91 -4298.68,-1102.63 -5999.34,607.67 -385.89,388.1 -719.04,705.85 -978.38,1225.45 -920.44,1844.09 -111.93,3465.21 1175.19,4756.46 2124.94,2131.74 4901.68,1553.13 6888.72,-391.85 391.02,-382.72 692.64,-576.74 411.5,-1162.65 -317.24,-75.97 -485.33,-227.28 -823.54,199.64 -754.32,952.17 -2330.7,1907.43 -3826.47,1696.04 -525.09,-74.21 -793.85,-199.98 -1175.93,-398.72 -843.91,-438.97 -2044.89,-1793.2 -2044.89,-2835.02 0,-1289.91 199.82,-1608.82 1237.88,-2618.79 1213.72,-1180.83 2964.75,-1117.02 4377.93,-399.64 2244.33,1139.34 3299.66,3930.49 6142.73,5820.92 2117.65,1408.07 4450.11,1986.79 6404.93,12.89 2918.81,-2947.28 362.89,-7459.14 -2972.79,-7459.14 -1230.07,0 -2397.4,706.72 -3202.58,1362.49 -806.99,657.21 -1292.48,875.44 -968.95,1549.7z"/>
 </g>
</svg>
