<?xml version="1.0" encoding="UTF-8"?>
<!DOCTYPE svg PUBLIC "-//W3C//DTD SVG 1.1//EN" "http://www.w3.org/Graphics/SVG/1.1/DTD/svg11.dtd">
<!-- Creator: CorelDRAW 2018 (64-Bit) -->
<svg xmlns="http://www.w3.org/2000/svg" xml:space="preserve" width="210mm" height="297mm" version="1.1" style="shape-rendering:geometricPrecision; text-rendering:geometricPrecision; image-rendering:optimizeQuality; fill-rule:evenodd; clip-rule:evenodd"
viewBox="0 0 21000 29700"
 xmlns:xlink="http://www.w3.org/1999/xlink">
 <defs>
  <style type="text/css">
   <![CDATA[
    .fil0 {fill:#4A6BB6}
   ]]>
  </style>
 </defs>
 <g id="Слой_x0020_1">
  <metadata id="CorelCorpID_0Corel-Layer"/>
  <g id="_1905921835984">
   <path class="fil0" d="M13449.18 21402.59l295.48 358.44 5110.38 14.38c278.73,186.65 462.06,274.95 652.42,559.23 -264.28,176.96 -493.43,466.03 -932.05,466.03l-16310.77 0c-438.63,0 -667.77,-289.07 -932.05,-466.03 311.92,-465.81 3455.81,-2584.37 3939.7,-2957.42l4059.25 -2931.08c998.07,-756.36 1313.45,-664.26 2278.71,84.65l6033.13 4405.77 -3914.6 0c-124.12,185.37 -169.67,258.24 -279.6,466.03zm-4107.79 -17802.05l7929.18 0c461.13,0 830.36,337.15 983.38,694.3 247.06,576.59 135.06,4121.97 135.06,4897.98l2050.5 1491.26 0 11091.33c0,1034.06 -1064.18,1864.1 -1677.68,1864.1l-16683.61 0c-613.5,0 -1677.68,-830.04 -1677.68,-1864.1l0 -11091.33c193.18,-129.35 316.33,-242.69 540.85,-391.2l1509.65 -1100.06c0,-1118.47 0.08,-2236.92 0,-3355.36 -0.03,-661.09 -126.24,-2236.92 1118.44,-2236.92l2511.43 2.72 191.52 370.1c-376.81,712.12 -1065.11,466.02 -2796.13,466.02 -96.91,183.12 -186.42,274.85 -186.42,559.24l0 7456.35 4538.46 3663.53c371.46,271.81 -25.71,374.77 1331.76,-589.43 852.29,-605.37 1722.49,-588.38 2574.75,38.28 1139.32,837.76 814.35,1063.15 2249.07,-247.53l2984.4 -2421.46c237.09,-226.29 325.55,-271.76 581.85,-443.39l0 -7456.35c0,-284.39 -89.51,-376.12 -186.42,-559.24l-7176.73 0c-938.57,0 -1589.96,217.36 -1770.89,-559.24l245.13 -220.89c53,-26.11 300.74,-45.13 680.13,-58.71zm4201 13235.03c253.37,-378.39 746.55,-630.6 1049.72,-907.56l1162.7 -981.01c184.6,-168.64 191.05,-128.48 372.42,-279.97l1945.27 -1596.55c273.16,-203.43 505.89,-429.22 765.05,-633l763.12 -634.95 0 9413.67c-317.28,-84.73 -160.93,-52.24 -411.36,-241.06l-4919.68 -3561.94c-226.05,-149.52 -588.27,-387.93 -727.24,-577.63zm-12303.01 4380.63l0 -9413.67 2254.88 1846.11c144.71,113.76 192.16,201.61 336.86,315.59l786.72 611.36c186.39,161.95 249.93,182.46 419.15,326.45l2260.67 1933.53c-195.69,267.14 -4947.57,3619.72 -5275.92,3858.11 -156.78,113.8 -205.53,156.7 -371,281.46 -250.43,188.82 -94.08,156.33 -411.36,241.06zm17056.42 -10998.14c325.18,86.84 938.97,515.66 1025.26,838.84 -363.2,96.99 -184.78,83.54 -448.74,296.91 -135.17,109.27 -354.09,268.98 -483.31,355.53 0,-483.01 67.14,-1157.12 -93.21,-1491.28zm-15844.76 1491.28c-148.59,-99.52 -256.65,-184.81 -429.25,-316.41 -284.15,-216.61 -150.97,-242.08 -502.8,-336.03 72.1,-269.99 -12.34,-123.89 180.89,-285.16l844.37 -553.68c-160.35,334.16 -93.21,1008.27 -93.21,1491.28z"/>
   <path class="fil0" d="M7297.66 9658.82c0,-400.9 117.25,-938.39 248.64,-1242.62 224.28,-519.29 298.65,-562.96 660.11,-924.36 340.24,-340.19 418.23,-461.43 915.88,-668.62 367.24,-152.87 848.78,-292.15 1264.23,-309.22 826.59,-33.98 1672.74,400 2200.59,931.15 2264.27,2278.27 112.45,5289.43 -1840.88,5289.43 -1128.45,0 -1707.27,-75.75 -2587.06,-954.72 -489.22,-488.77 -861.51,-1178.24 -861.51,-2121.04zm-838.84 0c0,798.21 234.58,1555.38 650.86,2145.32 105.66,149.75 270.41,381.98 397.89,534.14 1382.2,1649.43 4342.1,1651.31 5780.42,48.71 137.49,-153.18 272.13,-347.61 404.15,-527.9 149.59,-204.28 245.23,-344.07 347.5,-584.54 1339.64,-3150.58 -1583.97,-6662.7 -5170.88,-5264.07 -1359.69,530.18 -2409.94,2028.44 -2409.94,3648.34z"/>
   <path class="fil0" d="M10000.6 10124.85c-767.56,-204.95 -1043.14,-1665.22 -1677.68,-466.03 202.49,382.7 1148.33,1491.29 1584.47,1491.29 285.79,0 2384.82,-2184.66 2609.74,-2609.74l-191.52 -370.09c-403.92,-6.08 -479.87,-18.07 -707.33,216.88 -13.42,13.85 -28.53,37.41 -41.47,51.73l-1127.59 1109.33c-220.95,185.82 -370.78,285.16 -448.62,576.63z"/>
   <path class="fil0" d="M6924.85 3973.36c0,593.79 838.84,576.77 838.84,0 0,-220.01 -158.74,-344.23 -338.13,-372.82l-162.59 0c-179.37,28.59 -338.12,152.84 -338.12,372.82z"/>
   <path class="fil0" d="M11678.29 21402.59c360.89,538.95 838.84,586.61 838.84,-279.6 -552.11,-292.13 -545.29,-275.17 -838.84,279.6z"/>
  </g>
 </g>
</svg>
