<svg xmlns="http://www.w3.org/2000/svg" viewBox="0 0 1943.74 847.3"><defs><style>.cls-1{fill:#5d6aa7;}.cls-2{fill:#4b5483;}.cls-3{fill:#4a4a4a;}</style></defs><title>Ресурс 9</title><g id="Слой_2" data-name="Слой 2"><g id="Слой_1-2" data-name="Слой 1"><path class="cls-1" d="M584.16,589.84c0,121.56-69.63,200.57-162.82,235.95C294.45,874,123.94,841.38,26.1,725.28c-30-35.65-20.69-90.56,18.23-116l1-.64c31-20.27,73-18.89,99.07,7.43,60,60.55,146.52,81.89,205.29,62,36.41-12.34,62.14-40.52,64.24-85,0-60.12-70.32-77.5-126.55-90.19-88.63-17.2-213-48.71-264.12-148.7C8.63,325.48,0,291.12,0,249.87,0,68,164,0,301.47,0c60.84,0,128,19.05,190.38,58.29,41.74,26.3,50.39,84.34,17.17,121-15.12,16.68-36.33,26.07-57.69,26.07a68.82,68.82,0,0,1-34.56-9.1c-96.85-55.49-238.55-48.22-246.55,39.34C164,308.38,249.88,332.13,317,343.19c95.42,16.25,194.18,47.95,240.34,132.8C574,506.49,583.75,543.85,584.16,589.84Z"/><path class="cls-2" d="M584.16,589.84c0,121.56-69.63,200.57-162.82,235.95-9.58-42.53-30.49-92.74-71.64-147.75,36.41-12.34,62.14-40.52,64.24-85,0-60.12-70.32-77.5-126.55-90.19-88.63-17.2-213-48.71-264.12-148.7C180.7,375.94,403.75,415,557.37,476,574,506.49,583.75,543.85,584.16,589.84Z"/><path class="cls-1" d="M705.44,676.56c-8.42,0-15.05,8-14,17.13,7.14,63,48.24,89.25,95.25,89.25,27.76,0,47.16-4,63.27-9.83,7.87-2.84,16.27,2.19,18.19,11l2.19,10c1.66,7.62-2.18,15.4-8.94,18C842.86,819.38,815.84,826,779.71,826c-86.46,0-138.1-62.06-138.1-154.51s49.9-165.28,131.72-165.28c91.68,0,116,88,116,144.38,0,4.27-.16,8.18-.39,11.71-.54,8-6.67,14.26-14.06,14.26Zm119.78-39.9c8.48,0,15-8.1,14-17.28-3.82-33.66-21.24-73.28-70-73.28-43.26,0-66.16,36.44-74.85,71-2.47,9.85,4.21,19.59,13.57,19.59Z"/><path class="cls-1" d="M1150.23,795.83c1.58,7.56-2.25,15.21-8.92,17.87-15.7,6.25-40,12.3-69.14,12.3-84.72,0-139.85-62.69-139.85-156.41,0-94.36,59.19-162.75,150.87-162.75a170.71,170.71,0,0,1,58.39,10.26c7.08,2.67,10.94,11,8.83,18.85L1147,548.79c-2.3,8.52-10.68,13.09-18.35,10.1-11.45-4.48-26.4-7.72-45.41-7.72-64.41,0-99.22,51.93-99.22,115.89,0,70.92,41.78,114.62,97.48,114.62a129.91,129.91,0,0,0,47.92-8.73c8-3.06,16.54,2.13,18.41,11.09Z"/><path class="cls-1" d="M1447.6,736.08c0,24.79.36,47.26,1.35,67.39.43,8.81-6,16.2-14.07,16.2h-17c-7.44,0-13.6-6.31-14.07-14.41l-2.07-35.62h-1.16c-13.34,24.7-42.94,57-92.84,57-44.1,0-96.9-26.6-96.9-134.25V528.56c0-8.5,6.31-15.38,14.09-15.38h22.87c7.79,0,14.1,6.88,14.1,15.38V682.89c0,58.26,16.25,97.52,62.67,97.52,34.23,0,58-26,67.31-50.66a88.22,88.22,0,0,0,4.64-28.5V528.56c0-8.5,6.31-15.38,14.1-15.38h22.87c7.78,0,14.09,6.88,14.09,15.38Z"/><path class="cls-1" d="M1532.33,608.8c0-29.42-.39-55.47-1.47-79.53-.4-8.77,6-16.09,14.07-16.09H1561c7.61,0,13.85,6.59,14.09,14.89l1.31,45.26h2.32c12.76-41.16,43.52-67.12,77.75-67.12h.59c7.72.06,13.92,7,13.92,15.39v21.84c0,8.68-6.56,15.59-14.51,15.37-.93,0-1.9,0-2.9,0-36,0-61.51,29.76-68.47,71.56a170.75,170.75,0,0,0-2.32,26v148c0,8.49-6.31,15.38-14.1,15.38h-22.29c-7.78,0-14.09-6.89-14.09-15.38Z"/><path class="cls-1" d="M1759.79,676.56c-8.42,0-15,8-14,17.13,7.14,63,48.25,89.25,95.25,89.25,27.77,0,47.17-4,63.28-9.83,7.86-2.84,16.27,2.19,18.18,11l2.19,10c1.66,7.62-2.17,15.4-8.93,18-18.53,7.22-45.55,13.84-81.68,13.84-86.46,0-138.1-62.06-138.1-154.51s49.9-165.28,131.72-165.28c91.68,0,116,88,116,144.38,0,4.27-.16,8.18-.4,11.71-.53,8-6.67,14.26-14.06,14.26Zm119.79-39.9c8.47,0,15-8.1,14-17.28-3.82-33.66-21.23-73.28-70-73.28-43.26,0-66.16,36.44-74.84,71-2.48,9.85,4.21,19.59,13.57,19.59Z"/><path class="cls-3" d="M638.38,9.11C667.66,4.63,706,.81,754.8.9,814.74,1,858.63,14,886.47,37.41c25.76,20.77,41,52.54,41,91.4-.07,39.5-12.67,70.57-36.41,93.19-32.12,31.68-84.42,47.78-143.67,47.67-18.13,0-34.85-.71-48.79-4l-.31,174.87-60.64-.11Zm60.26,210.6c13.24,3.27,30,4.59,50.18,4.63,73.19.13,117.86-32.82,118-93.05.1-57.65-43.76-85.58-110.68-85.7-26.49,0-46.7,1.86-57.16,4.43Z"/><path class="cls-3" d="M995.59,225.05c0-36.92-.7-68.66-2.79-97.8h53.67l2.1,61.53h2.78c15.34-42.1,52.28-68.66,93.41-68.66a70.82,70.82,0,0,1,17.42,1.95v53.75a99.21,99.21,0,0,0-20.91-1.94c-43.21,0-73.88,30.44-82.25,73.19a149.79,149.79,0,0,0-2.79,26.55v167.1H995.59Z"/><path class="cls-3" d="M1294.62,39.16c.7,19.43-14.64,35-39,35-21.61,0-36.95-15.55-36.95-35,0-20.07,16-35.62,38.34-35.62C1280,3.54,1294.62,19.09,1294.62,39.16Zm-68.31,401.56V127.25h61.34V440.72Z"/><path class="cls-3" d="M1389.42,212.09c0-32.38-.7-58.93-2.79-84.84H1441l3.48,51.81h1.4c16.73-29.79,55.76-58.94,111.52-58.94,46.7,0,119.2,25.91,119.2,133.42V440.72h-61.34V260c0-50.52-20.22-92.62-78.07-92.62-40.43,0-71.8,26.56-82.25,58.29-2.79,7.13-4.18,16.84-4.18,26.56V440.72h-61.34Z"/><path class="cls-3" d="M1877.46,447c-3.23-.31-6.42-.58-9.59-.91h9.5Z"/><path class="cls-3" d="M1852.72,48.81v88.67h86.45v42.74h-86.45V346.71c0,38.27,11.66,60,45.28,60,15.78,0,27.45-1.91,35-3.82l2.75,42.1c-11.67,4.46-30.19,7.65-53.52,7.65-28.13,0-50.77-8.29-65.18-23.6-17.16-16.59-23.33-44-23.33-80.38V180.22h-51.46V137.48h51.46v-74Z"/></g></g></svg>