<?xml version="1.0" encoding="UTF-8"?>
<!DOCTYPE svg PUBLIC "-//W3C//DTD SVG 1.1//EN" "http://www.w3.org/Graphics/SVG/1.1/DTD/svg11.dtd">
<!-- Creator: CorelDRAW 2018 (64-Bit) -->
<svg xmlns="http://www.w3.org/2000/svg" xml:space="preserve" width="210mm" height="150mm" version="1.1" style="shape-rendering:geometricPrecision; text-rendering:geometricPrecision; image-rendering:optimizeQuality; fill-rule:evenodd; clip-rule:evenodd"
viewBox="0 0 21000 15000"
 xmlns:xlink="http://www.w3.org/1999/xlink">
 <defs>
  <style type="text/css">
   <![CDATA[
    .fil1 {fill:#3C528D}
    .fil2 {fill:#474747}
    .fil0 {fill:#4A6BB6}
    .fil3 {fill:#4C6CB6}
    .fil4 {fill:#4C6DB8}
   ]]>
  </style>
 </defs>
 <g id="Слой_x0020_1">
  <metadata id="CorelCorpID_0Corel-Layer"/>
  <g id="_1905928048336">
   <path class="fil0" d="M1609.83 6194.72c0.27,-82.77 435.97,19.32 591.27,42.64 223.8,33.61 450.62,71.45 673.79,110.24 432.2,75.12 868.52,152.65 1298.8,245.11 657.25,141.24 1878.19,417.86 2410.48,695.44 -103.48,-311.08 -367.8,-529.56 -634.41,-705.97 -1057.67,-699.83 -2334.74,-437.24 -2849.2,-1066.63 -552.19,-675.57 423.52,-1696.53 2142.07,-836.8 353.29,176.74 696.62,94.92 928.22,-167.35 229.69,-260.11 228.53,-712.34 -0.37,-972.16 -367.06,-416.61 -1278.23,-689.45 -1885.29,-695.91l-43.05 0c-1065.52,6.4 -2145.83,297.09 -2656.03,1246.1 -149.12,277.36 -237.71,602.66 -258.33,937.08l0 301.83c8.04,130.13 26.55,259.87 56.03,387.01 54.12,233.39 83.7,389.93 226.02,479.37z"/>
   <path class="fil1" d="M4678.99 9158.05c-1.71,68.23 264.98,475.16 339.2,613.51 109.1,203.35 229.54,481.32 277.45,727.15l53.81 0.07c299.87,72.95 1100.08,-607.98 1326.33,-1178.56 365.21,-921.01 85.66,-1975.37 -91.61,-2032.07 -532.29,-277.58 -1753.23,-554.2 -2410.48,-695.44 -430.28,-92.46 -866.6,-169.99 -1298.8,-245.11 -223.17,-38.79 -449.99,-76.63 -673.79,-110.24 -155.3,-23.32 -591,-125.41 -591.27,-42.64 -6.1,99.14 -22.28,-28.95 6.28,71.41l118.91 191.47c77.03,100.45 127.9,159.07 219.1,239.66 1072.16,947.46 2748.33,729.44 3170.52,1345.07 216.14,315.17 82.65,796.62 -321.62,1030.51 -128.72,74.47 -95.84,28.49 -124.03,85.21z"/>
   <path class="fil0" d="M5349.45 10498.78l-53.81 -0.07c-47.91,-245.83 -168.35,-523.8 -277.45,-727.15 -74.22,-138.35 -340.91,-545.28 -339.2,-613.51 -270.04,15.84 -566.76,166.17 -1139.96,-59.31 -857.6,-337.35 -1069.43,-1058.6 -1818.08,-570.58 -260.23,169.63 -415.34,569.4 -241.58,936.91 229.78,485.99 1051.07,948.39 1563.18,1117.93 272.95,90.36 563.71,144.09 860.43,162.55l471.93 0c242.54,-14.85 484.91,-52.37 720.84,-111.89 154.3,-38.92 186.9,-44.74 253.7,-134.88z"/>
   <path class="fil2" d="M8489.17 5489.16c-753.49,0 -564.45,21.71 -564.45,-141.11l0 -1411.11c173.86,0 1446.39,-227.09 1446.39,740.83 0,477.66 -387.4,811.39 -881.94,811.39zm-1128.89 -1940.27l-35.28 3951.11 599.72 0 0 -1587.5c158.97,76.27 551.81,49.75 757.24,16.4 1594.54,-258.89 1407.97,-1714.95 871.82,-2139.34 -478.69,-378.9 -1589.79,-381.32 -2193.5,-240.67z"/>
   <path class="fil2" d="M14486.39 5065.83c0,-213.2 4.53,-287.76 -35.28,-458.61 -697.95,0 -458.61,-100.19 -458.61,705.55l0 2187.23 564.45 0 0 -1763.89c0,-387.44 397.12,-705.56 635,-705.56 267.89,0 421.8,-15.07 610.21,201.18 81.88,93.98 165.9,305.83 165.9,469.1l0 1799.17 564.44 0 0 -1905c0,-280.37 -122.81,-536.74 -256.44,-696.06 -267.92,-319.44 -556.72,-327 -907.72,-327 -441.91,0 -676.58,257.62 -881.95,493.89z"/>
   <path class="fil0" d="M8524.45 8135c510.25,0 740.56,776.11 423.33,776.11 -399.32,0 -857.3,54.48 -1093.61,-70.56 28.26,-339.62 305.78,-705.55 670.28,-705.55zm-1164.17 1058.33c0,1818.24 2046.11,1416.83 2046.11,1128.89 0,-423.78 -250.69,-176.39 -564.44,-176.39 -356.71,0 -541.03,46.16 -821.04,-272.57 -137.6,-156.63 -166.74,-292.42 -166.74,-574.1 246.62,-57.45 614.96,-35.28 917.22,-35.28 431.64,0 811.39,78.83 811.39,-176.39 0,-598.01 -291.29,-1305.27 -917.22,-1305.27 -421.78,0 -706.5,16.21 -1024.12,457.54 -139.16,193.37 -281.16,620.31 -281.16,953.57z"/>
   <path class="fil0" d="M17096.95 8805.27c0,-287.01 322.72,-670.27 599.72,-670.27 588.67,0 817.1,776.11 493.89,776.11 -234.9,0 -1093.61,65.15 -1093.61,-105.84zm1693.33 105.84l0 212.39c-6.03,174.59 -53.23,145.06 -352.14,141.02 -329.34,-4.44 -1106.82,-19.96 -1341.19,34.64 -91.73,393.73 249.98,846.67 670.27,846.67 548.58,0 602.34,-66.69 776.12,-70.56 45.02,67.25 51.58,49.96 79.22,137.56 40.83,129.4 -4.29,208.83 -136.54,263.74 -585.7,243.17 -1882.96,153.29 -1882.96,-1283.24 0,-391.62 112.99,-721.35 276.36,-958.36 416.6,-604.33 1325.33,-601.26 1679.41,-80.19 136.19,200.4 231.45,436.2 231.45,756.33z"/>
   <path class="fil3" d="M12334.45 8064.44c0,1038.66 -199.05,2504.72 917.22,2504.72 513.74,0 676.13,-350.08 776.11,-423.33 0,211.95 7.22,388.05 211.67,388.05 325.78,0 214.62,-239.11 210.37,-492.37l1.29 -1553.74c0.03,-626.97 87.03,-670.27 -317.5,-670.27 -216.56,0 -141.13,424.19 -141.11,634.99 0.03,258.71 -1.16,517.68 0.24,776.35 1.56,288.51 -5.31,470.81 -134.63,641.49 -287.48,379.45 -1037.45,561.68 -1030.24,-676.53 1.44,-247.03 0.44,-494.26 0.47,-741.31 0.06,-597.58 82.52,-634.99 -317.5,-634.99 -114.05,0 -176.39,128.06 -176.39,246.94z"/>
   <path class="fil2" d="M17485 4113.33l0 529.17 -458.61 0 0 423.33 458.61 0c0,217.94 -41.1,1675.93 33.03,1942.52 96.8,348.05 394.6,492.25 724.85,531.16l35.93 -0.34c34.44,-4.56 -0.53,-2.74 41,-13.07 78.85,-19.63 42.44,-17.68 150.91,-26.77 145.28,-12.16 168.88,-25.01 284.28,-34.61 -3.42,-153.81 -35.28,-220.8 -35.28,-423.34 -290.36,24.17 -705.55,212.29 -705.55,-564.44l0 -1411.11 776.11 0 0 -423.33 -776.11 0 0 -811.39c-134.79,64.67 -422.77,91.87 -496.67,139.6 -147.12,95.02 -32.5,9.37 -32.5,142.62z"/>
   <path class="fil3" d="M11099.72 10569.16c1143.5,0 675.66,-493.89 635,-493.89 -227.42,0 -698.91,274.31 -1119.43,-221.12 -471.2,-555.16 -116.75,-1648.6 484.43,-1648.6 382.7,0 543.46,48.33 572.69,48.31 121.97,-0.07 197.72,-63.31 188.26,-225.86 -17.84,-306.29 -494,-245.78 -725.67,-245.78 -1566.9,0 -1669.75,2786.94 -35.28,2786.94z"/>
   <path class="fil2" d="M10993.89 5136.38c0,-578.99 96.27,-529.16 -423.33,-529.16 -181.77,0 -70.56,182.68 -70.56,352.78l0 2540 564.45 0 0 -1481.67c0,-311.42 75.49,-549.47 236.46,-716.04 273.61,-283.11 460.57,-222.44 716.04,-201.18l0 -529.17c-355.91,0 -622.35,-20.06 -882.81,351.92 -24.16,34.49 -45.71,73.1 -68.08,108.31l-72.17 104.21z"/>
   <path class="fil4" d="M15580 8276.11c0,-262.2 69.99,-458.61 -211.66,-458.61 -108.32,0 -211.67,32.66 -211.67,141.11l0 2328.33c0,235.61 149.93,246.94 317.5,246.94 84.81,0 103.7,-57.16 176.39,-105.83 0,-1022.39 -219.89,-2008.78 560.84,-2155.54 247.86,-46.59 215.27,-120.69 215.27,-349.18 0,-197.08 -421.3,-250.88 -731.1,186.12l-115.57 166.66z"/>
   <path class="fil2" d="M12546.11 7500l564.45 0 0 -2786.95c0,-81.28 -24.55,-105.83 -105.84,-105.83l-458.61 0 0 2892.78z"/>
   <path class="fil2" d="M12475.56 3760.55c0,530.86 452.43,451.3 599.38,317.16 311.95,-284.74 -115.24,-789.36 -479.23,-514.51 -41.44,31.29 -120.15,139.65 -120.15,197.35z"/>
  </g>
 </g>
</svg>
